<?xml version="1.0" standalone="no"?>
<!DOCTYPE svg PUBLIC "-//W3C//DTD SVG 20010904//EN"
 "http://www.w3.org/TR/2001/REC-SVG-20010904/DTD/svg10.dtd">
<svg version="1.0" xmlns="http://www.w3.org/2000/svg"
 width="1200.000000pt" height="490.000000pt" viewBox="0 0 1200.000000 490.000000"
 preserveAspectRatio="xMidYMid meet">

<g transform="translate(0.000000,490.000000) scale(0.100000,-0.100000)"
fill="#000000" stroke="none">
<path d="M6845 3999 c-335 -45 -612 -203 -772 -439 -62 -92 -53 -91 37 4 190
198 381 311 614 363 86 19 285 21 376 4 390 -73 745 -363 891 -726 89 -222 90
-467 3 -663 -38 -87 -30 -85 -157 -40 -61 22 -185 60 -275 84 -278 77 -325
108 -373 244 l-16 45 -19 -35 c-15 -28 -19 -55 -19 -135 0 -88 4 -107 27 -158
15 -32 42 -76 59 -98 69 -88 231 -178 499 -278 91 -34 188 -74 215 -88 171
-89 327 -203 392 -287 l37 -48 9 33 c25 95 -18 282 -90 388 -54 79 -57 85 -45
77 11 -6 13 1 42 121 158 661 -74 1226 -612 1491 -200 99 -369 140 -603 147
-82 2 -181 0 -220 -6z"/>
<path d="M11281 3430 c-51 -131 -66 -161 -84 -164 -73 -16 -202 -27 -236 -21
-37 6 -41 5 -47 -18 -7 -32 13 -74 49 -101 24 -17 42 -21 108 -20 43 1 79 0
79 -1 0 -1 -24 -67 -54 -146 -29 -79 -69 -191 -87 -248 -33 -102 -35 -105 -84
-136 -66 -42 -309 -183 -329 -191 -11 -4 -23 11 -44 59 -104 228 -100 331 16
406 48 30 134 56 159 47 18 -7 16 -39 -7 -121 -23 -79 -18 -89 46 -101 81 -15
170 95 145 182 -11 40 -47 108 -63 121 -24 19 -151 66 -192 70 -84 10 -233
-62 -311 -149 -63 -69 -88 -136 -87 -237 l1 -86 -77 -100 c-237 -310 -427
-492 -479 -459 -30 18 -43 73 -37 149 6 74 40 249 54 276 6 10 34 19 79 26 88
14 150 44 211 105 55 54 90 133 90 202 0 36 -6 49 -32 75 -37 36 -124 80 -173
88 -68 11 -183 -64 -262 -171 -47 -63 -121 -204 -142 -267 -16 -49 -220 -319
-305 -404 l-71 -70 -3 38 c-7 75 58 359 128 562 33 94 39 124 31 137 -6 10
-11 24 -11 32 0 15 -35 31 -89 40 -31 6 -39 2 -76 -38 -47 -48 -135 -180 -296
-438 -151 -243 -160 -252 -139 -137 20 110 80 275 162 442 43 88 77 166 74
173 -6 16 -98 44 -142 44 -60 0 -180 -153 -244 -313 -68 -171 -93 -363 -57
-434 24 -45 84 -91 143 -110 50 -15 53 -15 98 6 52 26 100 77 182 194 50 73
56 78 50 47 -13 -69 -19 -158 -12 -194 14 -71 107 -145 184 -146 18 0 52 10
74 21 47 24 176 150 228 223 l34 47 12 -61 c16 -77 58 -153 108 -196 127 -109
286 -53 489 173 71 78 180 216 223 282 24 37 29 41 36 25 4 -11 23 -57 43
-104 l37 -85 -34 -25 c-18 -14 -47 -38 -65 -55 -17 -16 -37 -31 -45 -33 -40
-10 -119 -128 -125 -187 -8 -70 56 -140 141 -156 95 -18 203 22 297 108 77 72
104 138 95 238 -3 39 -9 81 -12 95 -5 24 5 32 145 118 82 51 152 92 155 92 3
0 1 -11 -4 -24 -27 -72 -42 -247 -29 -341 7 -50 14 -65 42 -91 33 -31 130 -74
166 -74 10 0 45 13 77 30 69 34 268 225 259 247 -2 8 -1 12 4 8 13 -7 92 87
86 102 -2 7 1 15 7 19 7 4 8 3 4 -4 -4 -7 -5 -12 -3 -12 13 0 179 254 192 294
15 44 15 49 0 73 -20 31 1 52 -200 -202 -164 -206 -378 -435 -408 -435 -49 0
10 334 116 653 24 70 40 127 37 127 -3 0 -12 -16 -19 -36 -19 -53 -24 -35 -5
19 9 26 21 47 28 47 15 0 60 126 50 141 -4 7 -3 9 4 5 6 -4 20 24 37 73 l26
80 57 8 c31 4 120 7 198 7 l141 -1 -5 26 c-11 65 -60 84 -240 97 -56 4 -102
10 -102 15 0 4 5 20 11 36 25 67 28 117 10 173 -15 47 -23 57 -52 67 -72 25
-70 28 -138 -147z m23 -524 c-9 -26 -18 -45 -20 -43 -2 2 3 25 12 51 9 26 18
45 20 43 2 -2 -3 -25 -12 -51z m-1344 -140 c0 -36 -60 -117 -115 -154 -26 -18
-50 -30 -53 -28 -14 15 133 206 159 206 5 0 9 -11 9 -24z m1274 -60 c-3 -15
-8 -25 -11 -23 -2 3 -1 17 3 31 3 15 8 25 11 23 2 -3 1 -17 -3 -31z m-37 -108
c-3 -8 -6 -5 -6 6 -1 11 2 17 5 13 3 -3 4 -12 1 -19z m-10 -40 c-3 -8 -6 -5
-6 6 -1 11 2 17 5 13 3 -3 4 -12 1 -19z m-767 -478 c0 -33 -7 -48 -40 -84 -47
-51 -84 -69 -131 -64 l-34 3 92 93 c51 50 97 92 102 92 6 0 11 -18 11 -40z"/>
</g>
</svg>
